<?xml version="1.0" standalone="no"?>
<!DOCTYPE svg PUBLIC "-//W3C//DTD SVG 20010904//EN"
 "http://www.w3.org/TR/2001/REC-SVG-20010904/DTD/svg10.dtd">
<svg version="1.0" xmlns="http://www.w3.org/2000/svg"
 width="96.000000pt" height="96.000000pt" viewBox="0 0 96.000000 96.000000"
 preserveAspectRatio="xMidYMid meet">

<g transform="translate(0.000000,96.000000) scale(0.100000,-0.100000)"
fill="#000000" stroke="none">
<path d="M290 865 c-11 -14 -4 -77 15 -126 5 -13 -3 -17 -36 -22 -56 -7 -99
-50 -106 -105 -3 -23 -14 -49 -24 -58 -28 -25 -28 -163 0 -188 15 -14 20 -34
23 -96 3 -74 5 -82 36 -112 l32 -33 251 0 251 0 34 37 c32 36 34 41 34 111 0
61 3 77 20 92 17 15 20 31 20 95 0 64 -3 80 -20 95 -12 11 -20 31 -20 52 0 50
-52 102 -108 110 -34 5 -42 9 -37 22 4 9 11 37 17 63 12 52 1 78 -32 78 -25 0
-37 -19 -50 -75 -20 -91 -11 -85 -110 -85 -90 0 -90 0 -96 28 -17 75 -27 108
-36 120 -14 16 -43 15 -58 -3z m418 -237 c7 -7 12 -28 12 -48 0 -24 7 -43 20
-55 15 -13 20 -31 20 -65 0 -34 -5 -52 -20 -65 -17 -15 -20 -31 -20 -95 0 -46
-5 -81 -12 -88 -17 -17 -439 -17 -456 0 -7 7 -12 42 -12 88 0 64 -3 80 -20 95
-28 25 -28 105 0 130 13 12 20 31 20 55 0 20 5 41 12 48 17 17 439 17 456 0z"/>
<path d="M300 540 c-11 -11 -20 -29 -20 -40 0 -11 9 -29 20 -40 11 -11 29 -20
40 -20 26 0 60 34 60 60 0 11 -9 29 -20 40 -11 11 -29 20 -40 20 -11 0 -29 -9
-40 -20z"/>
<path d="M580 540 c-11 -11 -20 -29 -20 -40 0 -11 9 -29 20 -40 11 -11 29 -20
40 -20 26 0 60 34 60 60 0 11 -9 29 -20 40 -11 11 -29 20 -40 20 -11 0 -29 -9
-40 -20z"/>
<path d="M372 348 c-6 -6 -12 -20 -12 -29 0 -32 25 -40 125 -37 80 2 100 6
109 21 8 12 8 22 0 35 -9 14 -29 18 -110 20 -69 2 -103 -1 -112 -10z"/>
</g>
</svg>
